<?xml version="1.0" encoding="utf-8"?>
<!-- Generator: Adobe Illustrator 25.4.1, SVG Export Plug-In . SVG Version: 6.00 Build 0)  -->
<svg version="1.1" id="Layer_1" xmlns="http://www.w3.org/2000/svg" xmlns:xlink="http://www.w3.org/1999/xlink" x="0px" y="0px"
	 viewBox="0 0 40 30" style="enable-background:new 0 0 40 30;" xml:space="preserve">
<style type="text/css">
	.st0{fill:#770101;}
	.st1{fill:#FBF7F6;}
</style>
<g>
	<desc>Created with Sketch.</desc>
	<path class="st0" d="M29.1,30H12.7c-3.8,0-6.8-3.1-6.8-6.8V6.8C5.9,3.1,9,0,12.7,0h16.4c3.8,0,6.8,3.1,6.8,6.8v16.4
		C35.9,26.9,32.8,30,29.1,30z"/>
	<g>
		<path class="st1" d="M14,7.5l15.2,15c0,0-2.8-2.2-6.2-2.6c-3.4-0.3-4.5-0.6-4.6-2.7c-0.1-2.1,6.9-2,6.4-4.8
			C24.4,9.5,17.4,10.6,14,7.5z"/>
		<path class="st1" d="M14,7.5l3.4,10.2c0,0-2.5,3.1-4.4,1.3S15.9,13.2,14,7.5z"/>
	</g>
</g>
</svg>
