<?xml version="1.0" encoding="utf-8"?>
<!-- Generator: Adobe Illustrator 25.4.1, SVG Export Plug-In . SVG Version: 6.00 Build 0)  -->
<svg version="1.1" id="Layer_1" xmlns="http://www.w3.org/2000/svg" xmlns:xlink="http://www.w3.org/1999/xlink" x="0px" y="0px"
	 viewBox="0 0 122 32" style="enable-background:new 0 0 122 32;" xml:space="preserve">
<style type="text/css">
	.st0{fill-rule:evenodd;clip-rule:evenodd;fill:#474747;}
	.st1{fill-rule:evenodd;clip-rule:evenodd;fill:#6493FF;}
	.st2{fill-rule:evenodd;clip-rule:evenodd;fill:#3155A7;}
	.st3{fill:#770101;}
	.st4{fill:#FBF7F6;}
	.st5{fill:#474747;}
</style>
<desc>Created with Sketch.</desc>
<g id="Page-1">
	<g id="majestic">
		<path id="Majestic" class="st0" d="M52.2,109.2v12.9h-1.3v-10.8l-4.4,10.8h-1.2l-4.4-10.8v10.8h-1.3v-12.9h1.5l4.8,11.3l4.8-11.3
			H52.2z M59.2,111.8c1,0,1.9,0.3,2.6,0.8c0.7,0.5,1.2,1.2,1.5,2.1v-2.8h1.3v10.2h-1.3v-2.8c-0.3,0.9-0.8,1.6-1.5,2.1
			s-1.6,0.8-2.6,0.8c-0.9,0-1.7-0.2-2.4-0.6s-1.3-1-1.7-1.8s-0.6-1.7-0.6-2.8c0-1.1,0.2-2,0.6-2.8c0.4-0.8,1-1.4,1.7-1.8
			C57.5,112,58.3,111.8,59.2,111.8z M59.6,112.9c-1.1,0-2,0.4-2.7,1.1s-1,1.7-1,3s0.3,2.3,1,3s1.6,1.1,2.7,1.1
			c0.7,0,1.4-0.2,1.9-0.5c0.6-0.3,1-0.8,1.3-1.4s0.5-1.3,0.5-2.1c0-0.8-0.2-1.5-0.5-2.1s-0.8-1.1-1.3-1.4
			C60.9,113.1,60.3,112.9,59.6,112.9z M68.2,109.8c-0.3,0-0.5-0.1-0.7-0.2c-0.2-0.2-0.3-0.4-0.3-0.6c0-0.3,0.1-0.5,0.3-0.7
			c0.2-0.2,0.4-0.2,0.7-0.2c0.3,0,0.5,0.1,0.7,0.2c0.2,0.2,0.3,0.4,0.3,0.7c0,0.3-0.1,0.5-0.3,0.6C68.7,109.7,68.5,109.8,68.2,109.8
			z M65.5,125.8h0.7c0.5,0,0.8-0.1,1-0.3c0.2-0.2,0.3-0.6,0.3-1.1v-12.5h1.3v12.6c0,1.7-0.8,2.5-2.5,2.5h-0.8V125.8z M76.1,121.2
			c0.9,0,1.7-0.2,2.3-0.7c0.6-0.5,1-1.1,1.1-1.9h1.4c-0.2,1.1-0.7,2-1.5,2.6c-0.8,0.7-1.9,1-3.2,1c-1,0-1.8-0.2-2.6-0.6
			c-0.7-0.4-1.3-1-1.7-1.8c-0.4-0.8-0.6-1.7-0.6-2.8c0-1.1,0.2-2,0.6-2.8s1-1.4,1.7-1.8s1.6-0.6,2.6-0.6s1.8,0.2,2.6,0.6
			c0.7,0.4,1.3,1,1.6,1.7c0.4,0.7,0.6,1.5,0.6,2.3c0,0.3,0,0.7-0.1,1h-8.3c0,0.9,0.2,1.6,0.5,2.2s0.8,1,1.3,1.3
			C74.8,121.1,75.4,121.2,76.1,121.2z M76.1,112.9c-0.7,0-1.2,0.1-1.8,0.4c-0.5,0.3-1,0.7-1.3,1.3c-0.3,0.6-0.5,1.3-0.5,2.1h7.1
			c0-0.8-0.1-1.5-0.4-2.1s-0.8-1-1.3-1.3C77.3,113,76.7,112.9,76.1,112.9z M86.2,111.8c1.1,0,2,0.3,2.6,0.9c0.7,0.6,1.1,1.4,1.2,2.4
			h-1.2c-0.1-0.7-0.3-1.2-0.8-1.6s-1.1-0.6-1.9-0.6c-0.7,0-1.2,0.2-1.6,0.5s-0.6,0.8-0.6,1.3c0,0.4,0.1,0.7,0.4,1
			c0.2,0.2,0.5,0.4,0.9,0.6s0.8,0.3,1.4,0.4c0.7,0.2,1.3,0.4,1.8,0.5c0.4,0.2,0.8,0.5,1.2,0.9c0.3,0.4,0.5,0.9,0.5,1.6
			c0,0.8-0.3,1.5-0.9,2s-1.4,0.8-2.4,0.8c-1.2,0-2.1-0.3-2.8-0.9c-0.7-0.6-1.2-1.4-1.3-2.4H84c0.1,0.7,0.4,1.2,0.9,1.6
			s1.2,0.6,2,0.6c0.6,0,1.1-0.2,1.5-0.5s0.5-0.8,0.5-1.3c0-0.4-0.1-0.8-0.4-1s-0.6-0.5-0.9-0.6c-0.4-0.1-0.9-0.3-1.5-0.4
			c-0.7-0.2-1.3-0.3-1.7-0.5c-0.4-0.2-0.8-0.4-1.1-0.8c-0.3-0.4-0.5-0.9-0.5-1.5c0-0.8,0.3-1.5,0.9-2
			C84.4,112,85.2,111.8,86.2,111.8z M97.1,121v1.2h-1.2c-1,0-1.7-0.2-2.2-0.7s-0.7-1.3-0.7-2.4v-6h-1.5V112H93v-2.6h1.3v2.6h2.8v1.1
			h-2.8v6c0,0.7,0.1,1.2,0.4,1.5s0.7,0.4,1.4,0.4H97.1z M99,108.9c0-0.3,0.1-0.5,0.3-0.7c0.2-0.2,0.4-0.2,0.7-0.2
			c0.3,0,0.5,0.1,0.7,0.2c0.2,0.2,0.3,0.4,0.3,0.7c0,0.3-0.1,0.5-0.3,0.6c-0.2,0.2-0.4,0.2-0.7,0.2c-0.3,0-0.5-0.1-0.7-0.2
			C99.1,109.4,99,109.1,99,108.9z M100.6,111.9v10.2h-1.3v-10.2H100.6z M107.8,111.8c1.3,0,2.3,0.3,3.2,1s1.4,1.6,1.5,2.7h-1.3
			c-0.1-0.8-0.5-1.5-1.1-1.9c-0.6-0.5-1.4-0.7-2.3-0.7c-0.7,0-1.3,0.1-1.8,0.4s-1,0.8-1.3,1.4s-0.5,1.4-0.5,2.3s0.2,1.7,0.5,2.3
			c0.3,0.6,0.8,1.1,1.3,1.4s1.1,0.4,1.8,0.4c0.9,0,1.7-0.2,2.3-0.7c0.6-0.5,1-1.1,1.1-1.9h1.3c-0.2,1.1-0.7,2-1.5,2.7s-1.9,1-3.2,1
			c-1,0-1.8-0.2-2.6-0.6c-0.7-0.4-1.3-1-1.7-1.8c-0.4-0.8-0.6-1.7-0.6-2.8c0-1.1,0.2-2,0.6-2.8s1-1.4,1.7-1.8
			C106,112,106.9,111.8,107.8,111.8z"/>
		<g id="Group-5">
			<path id="Rectangle" class="st1" d="M-0.7,95.6l2,0.4c1.6,0.3,2.7,1.9,2.3,3.6L-1,121.1c-0.3,1.6-1.9,2.7-3.6,2.3l-2-0.4
				c-1.6-0.3-2.7-1.9-2.3-3.6l4.6-21.5C-3.9,96.3-2.3,95.3-0.7,95.6z"/>
			<path id="Rectangle-Copy" class="st2" d="M10.3,100.4l2,0.1c1.6,0.1,2.8,1,2.5,2.1l-4.5,18.9c-0.3,1.1-2.1,1.9-3.8,1.8l-2-0.1
				c-1.6-0.1-2.8-1-2.5-2.1l4.8-18.9C7.1,101.1,8.6,100.3,10.3,100.4z"/>
			<path id="Rectangle-Copy-2" class="st1" d="M20.2,101.8l1.9,0.4c1.6,0.4,2.6,1.9,2.3,3.4L20.5,122c-0.4,1.5-2,2.5-3.6,2.1
				l-1.9-0.4c-1.6-0.4-2.6-1.9-2.3-3.4l3.9-16.4C16.9,102.4,18.5,101.5,20.2,101.8z"/>
			<path id="Path-2" class="st1" d="M-0.6,95.5l14.2,4.3c1,0.3,1.6,1.4,1.4,2.4l-1.4,5.2L-5,101.8l1.1-4.6c0.3-1.3,1.6-2.1,2.9-1.8
				C-0.9,95.4-0.7,95.4-0.6,95.5z"/>
			<circle id="Oval" class="st1" cx="27.1" cy="119.5" r="3.5"/>
		</g>
	</g>
</g>
<g>
	<path class="st3" d="M23.9,28.1H10.6c-3.1,0-5.5-2.5-5.5-5.5V9.4c0-3.1,2.5-5.5,5.5-5.5h13.2c3.1,0,5.5,2.5,5.5,5.5v13.2
		C29.4,25.7,26.9,28.1,23.9,28.1z"/>
	<g>
		<path class="st4" d="M11.7,9.9L24,22.1c0,0-2.3-1.8-5-2.1c-2.8-0.3-3.7-0.5-3.8-2.2c-0.1-1.7,5.6-1.6,5.2-3.9
			C20,11.6,14.4,12.4,11.7,9.9z"/>
		<path class="st4" d="M11.7,9.9l2.7,8.3c0,0-2,2.5-3.6,1.1C9.3,17.8,13.2,14.5,11.7,9.9z"/>
	</g>
</g>
<g>
	<path class="st5" d="M43.3,23.7L40,18.8h-2.7v4.9H34V8.3h7c1.8,0,3.3,0.4,4.3,1.3c1,0.9,1.5,2.1,1.5,3.7v0c0,1.2-0.3,2.3-0.9,3
		c-0.6,0.8-1.4,1.4-2.4,1.7l3.8,5.5H43.3z M43.4,13.6c0-0.7-0.2-1.3-0.7-1.6c-0.5-0.4-1.1-0.5-2-0.5h-3.4v4.4h3.4
		c0.8,0,1.5-0.2,1.9-0.6C43.2,14.8,43.4,14.3,43.4,13.6L43.4,13.6z"/>
	<path class="st5" d="M65,19.1c-0.4,1-1,1.8-1.7,2.5c-0.7,0.7-1.6,1.3-2.6,1.7c-1,0.4-2.1,0.6-3.3,0.6s-2.3-0.2-3.3-0.6
		s-1.9-1-2.6-1.7c-0.7-0.7-1.3-1.5-1.7-2.5c-0.4-1-0.6-2-0.6-3.1v0c0-1.1,0.2-2.1,0.6-3.1c0.4-1,1-1.8,1.7-2.5
		c0.7-0.7,1.6-1.3,2.6-1.7c1-0.4,2.1-0.6,3.3-0.6s2.3,0.2,3.3,0.6s1.9,1,2.6,1.7c0.7,0.7,1.3,1.5,1.7,2.5s0.6,2,0.6,3.1v0
		C65.6,17.1,65.4,18.1,65,19.1z M62,16c0-0.7-0.1-1.3-0.3-1.9c-0.2-0.6-0.5-1.1-1-1.5c-0.4-0.4-0.9-0.8-1.5-1
		c-0.6-0.3-1.2-0.4-1.9-0.4c-0.7,0-1.3,0.1-1.9,0.4s-1,0.6-1.5,1c-0.4,0.4-0.7,0.9-0.9,1.5c-0.2,0.6-0.3,1.2-0.3,1.9v0
		c0,0.7,0.1,1.3,0.3,1.9s0.6,1.1,1,1.5s0.9,0.8,1.5,1c0.6,0.3,1.2,0.4,1.9,0.4c0.7,0,1.3-0.1,1.9-0.4c0.6-0.2,1.1-0.6,1.5-1
		c0.4-0.4,0.7-1,0.9-1.5S62,16.7,62,16L62,16z"/>
	<path class="st5" d="M78.2,23.7l-3.5-5.3l-3.5,5.3h-3.9l5.4-7.8l-5.1-7.6h4l3.2,5l3.3-5h3.9l-5.1,7.5l5.4,7.9H78.2z"/>
	<path class="st5" d="M95.4,21.2c-0.3,0.6-0.7,1.1-1.2,1.5c-0.5,0.4-1.1,0.7-1.8,0.9c-0.7,0.2-1.4,0.3-2.3,0.3
		c-1.2,0-2.3-0.2-3.5-0.6c-1.1-0.4-2.2-1-3.1-1.9l2-2.4c0.7,0.6,1.4,1,2.2,1.4c0.7,0.3,1.6,0.5,2.4,0.5c0.7,0,1.2-0.1,1.6-0.4
		c0.4-0.3,0.6-0.6,0.6-1.1v0c0-0.2,0-0.4-0.1-0.6c-0.1-0.2-0.2-0.3-0.5-0.5c-0.2-0.1-0.5-0.3-0.9-0.4s-0.9-0.3-1.6-0.5
		c-0.8-0.2-1.5-0.4-2.1-0.6c-0.6-0.2-1.2-0.5-1.6-0.9s-0.8-0.8-1-1.3c-0.2-0.5-0.4-1.2-0.4-1.9v0c0-0.7,0.1-1.3,0.4-1.9
		c0.3-0.6,0.6-1.1,1.1-1.5c0.5-0.4,1-0.7,1.7-0.9s1.4-0.3,2.2-0.3c1.1,0,2.2,0.2,3.1,0.5c0.9,0.3,1.8,0.8,2.6,1.5l-1.8,2.6
		c-0.7-0.5-1.4-0.8-2-1.1c-0.7-0.3-1.3-0.4-2-0.4c-0.7,0-1.2,0.1-1.5,0.4s-0.5,0.6-0.5,1v0c0,0.2,0,0.5,0.1,0.6
		c0.1,0.2,0.3,0.3,0.5,0.5c0.2,0.1,0.6,0.3,1,0.4c0.4,0.1,1,0.3,1.6,0.5c0.8,0.2,1.5,0.4,2.1,0.7c0.6,0.3,1.1,0.6,1.5,0.9
		c0.4,0.4,0.7,0.8,0.9,1.3s0.3,1.1,0.3,1.7v0C95.8,19.9,95.7,20.6,95.4,21.2z"/>
	<path class="st5" d="M105.7,11.4v12.3h-3.4V11.4h-4.7V8.3h12.8v3.1H105.7z"/>
</g>
</svg>
